<?xml version="1.0" encoding="utf-8"?>
<svg viewBox="0 0 400 400" xmlns="http://www.w3.org/2000/svg">
  <path d="M 392.593 200 C 392.593 252.276 370.342 302.025 336.184 336.184 C 302.025 370.342 252.276 392.593 200 392.593 C 147.724 392.593 97.975 370.342 63.816 336.184 C 29.658 302.025 7.407 252.276 7.407 200 C 7.407 147.724 29.658 97.975 63.816 63.816 C 97.975 29.658 147.724 7.407 200 7.407 C 252.276 7.407 302.025 29.658 336.184 63.816 C 370.342 97.975 392.593 147.724 392.593 200 Z M 318.33 81.67 C 287.353 50.693 247.118 32.656 200 32.656 C 152.882 32.656 112.647 50.693 81.67 81.67 C 50.693 112.647 32.656 152.882 32.656 200 C 32.656 243.096 47.745 280.434 74.024 310.196 C 73.444 305.731 73.931 290.425 74.977 284.341 C 79.831 256.073 89.068 244.581 116.411 232.789 C 135.416 224.591 146.025 218.513 157.401 209.308 C 163.699 204.214 175.632 190.879 177.071 189.99 C 187.096 183.792 197.717 190.077 200.237 203.695 C 202.018 213.334 198.208 222.274 182.683 244.885 C 176.646 253.679 170.352 263.094 168.692 265.816 C 150.756 295.223 145.033 329.967 153.662 357.057 C 155.119 361.634 154.144 361.309 161.275 362.922 C 170.32 364.967 169.855 364.919 170.379 358.341 C 172.783 328.102 174.858 318.29 182.139 302.722 C 189.071 287.902 195.491 279.353 214.312 259.897 C 234.05 239.494 242.589 226.681 246.398 211.743 C 252.415 188.158 240.147 166.826 214.496 156.273 C 204.996 152.361 202.357 149.297 202.357 142.168 C 202.357 128.784 217.157 127.216 236.091 138.596 C 269.039 158.398 280.795 191.402 268.028 228.261 C 262.248 244.943 255.415 254.597 237.037 272.04 C 214.558 293.375 211.312 297.01 205.066 307.862 C 197.098 321.707 192.74 338.016 190.991 360.543 L 190.671 367.106 C 193.75 367.265 196.86 367.344 200 367.344 C 202.712 367.344 205.401 367.285 208.066 367.166 C 208.344 364.924 209.276 360.91 209.276 360.91 C 213.412 343.18 231.286 319.095 258.297 294.851 C 288.949 267.337 300.408 249.914 306.723 221.222 C 319.492 163.198 276.643 100.72 217.89 91.688 C 207.127 90.035 202.375 83.617 205.622 75.112 C 208.654 67.171 213.133 65.767 226.706 68.497 C 319.216 87.097 363.709 193.831 311.766 272.548 C 301.795 287.658 294.159 295.645 271.632 314.519 C 246.628 335.471 235.798 348.372 232.706 361.216 C 232.706 361.216 232.014 363.655 231.998 364.432 C 265.489 358.167 294.621 342.04 318.33 318.33 C 349.307 287.353 367.344 247.118 367.344 200 C 367.344 152.882 349.307 112.647 318.33 81.67 Z" style="fill: rgb(251, 74, 27);"/>
</svg>